<svg xmlns="http://www.w3.org/2000/svg" fill="none" width="auto" height="auto" viewBox="0.92 0.53 57.16 57.93">
    <path
        d="M50.6576 44.4881C50.5474 44.3805 50.4178 44.2947 50.2757 44.2354C50.1287 44.173 49.9704 44.1416 49.8108 44.1431C49.6493 44.1416 49.4892 44.173 49.3403 44.2354C49.1976 44.2947 49.0674 44.3805 48.9566 44.4881C48.8444 44.5951 48.7553 44.7238 48.6946 44.8663C48.6292 45.0151 48.5958 45.1761 48.5968 45.3386C48.5951 45.5042 48.6284 45.6683 48.6946 45.8202C48.7547 45.9646 48.8439 46.0953 48.9566 46.2039C49.1845 46.427 49.4918 46.5505 49.8108 46.5471C49.9702 46.5483 50.1283 46.5175 50.2757 46.4567C50.4178 46.3973 50.5474 46.3115 50.6576 46.2039C50.769 46.0943 50.858 45.9639 50.9196 45.8202C50.9844 45.6681 51.0165 45.504 51.0136 45.3386C51.0158 45.1763 50.9838 45.0154 50.9196 44.8663C50.8575 44.7245 50.7685 44.5961 50.6576 44.4881V44.4881ZM50.7221 45.75C50.6768 45.8729 50.607 45.9854 50.5169 46.0805C50.4268 46.1756 50.3184 46.2515 50.1982 46.3035C50.0755 46.3548 49.9438 46.3812 49.8108 46.381C49.6774 46.3758 49.5464 46.3445 49.4252 46.2888C49.307 46.2371 49.1999 46.1632 49.1097 46.0711C49.0186 45.9766 48.9471 45.865 48.8994 45.7427C48.7986 45.4815 48.7986 45.1921 48.8994 44.9309C48.9476 44.8111 49.0191 44.702 49.1097 44.6099C49.1999 44.5177 49.307 44.4438 49.4252 44.3922C49.55 44.3395 49.6845 44.3131 49.82 44.3147C49.9531 44.3136 50.085 44.34 50.2074 44.3922C50.3251 44.4447 50.432 44.5185 50.5229 44.6099C50.7091 44.8042 50.8112 45.064 50.807 45.3331C50.8057 45.4768 50.7749 45.6187 50.7166 45.75H50.7221Z"
        fill="#B0B0B1" />
    <path
        d="M50.2683 45.322C50.3063 45.2869 50.3357 45.2435 50.3542 45.1952C50.3728 45.1469 50.38 45.095 50.3753 45.0434C50.3795 44.9875 50.3708 44.9313 50.35 44.8792C50.3293 44.8271 50.2969 44.7804 50.2553 44.7427C50.1475 44.668 50.0172 44.6329 49.8864 44.6431H49.3329V46.0526H49.5506V45.4475H49.7941L50.1779 46.0526H50.4122L50.0118 45.4272C50.1059 45.4186 50.1952 45.3819 50.2683 45.322V45.322ZM49.7867 45.2685H49.5561V44.8128H49.8476C49.8845 44.8128 49.9214 44.8128 49.9602 44.8128C49.9943 44.8177 50.0274 44.8283 50.0579 44.8442C50.0876 44.8585 50.1125 44.8809 50.1299 44.9088C50.1501 44.9427 50.1597 44.9819 50.1576 45.0213C50.161 45.0672 50.15 45.113 50.1262 45.1523C50.1069 45.183 50.0785 45.2068 50.045 45.2206C50.0077 45.2369 49.9677 45.2462 49.927 45.2482C49.8827 45.2648 49.8365 45.2685 49.7941 45.2685H49.7867Z"
        fill="#B0B0B1" />
    <path
        d="M39.7301 15.8181C39.6156 15.8314 39.5004 15.8382 39.3851 15.8384C39.5004 15.8381 39.6156 15.8313 39.7301 15.8181V15.8181Z"
        fill="#231F20" />
    <path
        d="M39.7154 8.15612C37.6863 7.97614 35.6483 8.38343 33.8443 9.32943C32.0403 10.2754 30.5464 11.7202 29.5406 13.4916C28.5363 11.7241 27.0443 10.283 25.2431 9.34049C23.4418 8.39798 21.4073 7.99386 19.3825 8.17642C19.6016 8.45338 19.76 8.77332 19.8474 9.11548V9.10072C22.0002 9.06178 24.0979 9.78258 25.7721 11.1365C27.4462 12.4905 28.5898 14.3911 29.0019 16.5044C29.6985 19.9921 29.3586 23.6074 28.0241 26.9042H27.9134C29.2455 23.6295 29.4908 20.0245 28.7971 16.5431C28.3963 14.4822 27.2839 12.6276 25.6544 11.3036C24.0249 9.97964 21.9819 9.27044 19.8825 9.29997L19.8567 9.18374C19.9345 9.52759 19.9395 9.88391 19.8714 10.2298L19.7699 10.2077C19.912 9.49185 19.6224 8.75019 19.139 8.2004C18.7794 7.74898 18.2727 7.43817 17.7073 7.32222C18.0932 7.89953 18.2461 8.60156 18.1353 9.28706C18.1173 9.35407 18.1055 9.42264 18.1003 9.49185V9.49185C18.0646 9.65712 18.0626 9.82789 18.0943 9.99397C18.1259 10.1601 18.1907 10.3181 18.2848 10.4586L18.1981 10.5176C17.9951 10.2132 17.8291 9.89773 17.8863 9.53981L16.7793 9.78888L11.1652 15.4491C11.0721 15.4887 10.9981 15.5631 10.9591 15.6566C10.9201 15.75 10.9193 15.855 10.9568 15.9491C10.9715 15.9808 10.9901 16.0105 11.0121 16.0376C11.0757 16.172 11.0963 16.3228 11.0711 16.4693C11.0317 16.764 11.0711 17.0639 11.1855 17.3383C11.3587 17.7558 11.6905 18.0876 12.108 18.2607H13.4124C13.8299 18.0876 14.1616 17.7558 14.3348 17.3383L18.5246 15.6041C17.9444 15.3706 17.4467 14.9699 17.0948 14.4528L17.1815 14.3938C17.735 15.2037 18.7165 15.6317 19.6925 15.6317C20.1809 15.6322 20.6616 15.5105 21.0909 15.2775L21.1684 15.4177C21.1676 15.4226 21.1676 15.4276 21.1684 15.4325L21.1832 15.462L21.1629 15.4731C20.8931 17.8159 19.8475 20.0012 18.1925 21.6812L18.1667 21.7052C16.7461 23.1039 15.826 24.9318 15.5488 26.906H14.689V27.7676H15.5967L15.6097 27.7824H43.4661L43.4772 27.7676H44.3849V26.906H43.5214C43.2455 24.9326 42.3274 23.1048 40.909 21.7052L40.8814 21.6812C39.2283 20.002 38.183 17.8192 37.911 15.4786V15.4786L37.8926 15.4675L37.9074 15.4399C37.9074 15.4399 37.9074 15.4288 37.9074 15.4233L37.9867 15.2941C38.4166 15.5271 38.898 15.6488 39.387 15.6483C40.3611 15.6483 41.35 15.2203 41.8979 14.4104L41.9828 14.4694C41.6321 14.9869 41.1349 15.3878 40.5548 15.6207L44.7483 17.3549C44.8333 17.5621 44.9586 17.7504 45.1169 17.9087C45.2753 18.0671 45.4636 18.1924 45.6708 18.2774H46.9788C47.3959 18.1035 47.7274 17.772 47.9013 17.3549C48.0148 17.0802 48.0543 16.7806 48.0157 16.4859C48.0157 16.4859 48.0157 16.4859 48.0157 16.4859C47.992 16.3395 48.0119 16.1894 48.0729 16.0542C48.0974 16.0286 48.1168 15.9985 48.1301 15.9657C48.1493 15.9192 48.1593 15.8693 48.1592 15.819C48.1592 15.7686 48.1492 15.7188 48.1298 15.6723C48.1104 15.6259 48.0821 15.5837 48.0463 15.5482C48.0106 15.5128 47.9682 15.4847 47.9216 15.4657L42.3056 9.77596L41.1987 9.52505C41.2559 9.89404 41.0935 10.2095 40.8887 10.5176L40.802 10.4586C40.897 10.3157 40.9622 10.1552 40.9939 9.98656C41.0256 9.81796 41.0231 9.6447 40.9865 9.47709C40.9785 9.41467 40.9655 9.35298 40.9478 9.29259C40.8375 8.60686 40.9911 7.90481 41.3776 7.32775C40.8197 7.43721 40.3185 7.74044 39.9626 8.1838C39.4663 8.73727 39.1674 9.48816 39.3132 10.2132L39.2154 10.2353C39.1446 9.89116 39.1477 9.53585 39.2246 9.19297L39.1988 9.30551C37.0995 9.27634 35.0567 9.98567 33.4273 11.3096C31.7978 12.6335 30.6853 14.4879 30.2841 16.5487C29.5923 20.03 29.8395 23.635 31.1697 26.9097H31.0572C29.727 23.6118 29.3897 19.997 30.0867 16.5099C30.4989 14.3963 31.6428 12.4955 33.3173 11.1415C34.9919 9.78748 37.09 9.06687 39.2431 9.10626V9.11917C39.3282 8.7675 39.4895 8.43877 39.7154 8.15612V8.15612ZM11.6726 16.628C11.7204 16.557 11.7478 16.4742 11.7521 16.3887C11.7563 16.3032 11.7371 16.2182 11.6966 16.1428H11.6726C11.6133 16.1375 11.5582 16.1103 11.518 16.0664C11.4778 16.0225 11.4555 15.9652 11.4555 15.9057C11.4555 15.8462 11.4778 15.7889 11.518 15.745C11.5582 15.7011 11.6133 15.6739 11.6726 15.6686C11.7993 15.6686 11.9209 15.719 12.0105 15.8086C12.1001 15.8982 12.1504 16.0197 12.1504 16.1465C12.1504 16.2732 12.1001 16.3947 12.0105 16.4844C11.9209 16.574 11.7993 16.6243 11.6726 16.6243V16.628ZM17.438 11.8773C17.3218 11.8779 17.2075 11.9068 17.1049 11.9614C17.0024 12.0161 16.9147 12.0948 16.8494 12.191V12.191C16.8061 12.2428 16.7519 12.2845 16.6907 12.3132C16.6295 12.3419 16.5628 12.3569 16.4952 12.357C16.4316 12.3572 16.3686 12.3445 16.3099 12.3198C16.2513 12.295 16.1982 12.2588 16.1539 12.2131C16.0229 12.0747 15.9122 12.0286 15.6004 12.0286C15.7115 11.9652 15.8038 11.8735 15.8679 11.7629C15.9295 11.6533 16.0193 11.5621 16.1279 11.4988C16.2366 11.4356 16.3602 11.4026 16.486 11.4032C16.5646 11.4035 16.6419 11.4232 16.7111 11.4605C16.7803 11.4978 16.8392 11.5516 16.8826 11.6172C16.9529 11.6916 17.0394 11.7486 17.1355 11.7838C17.2315 11.8191 17.3345 11.8315 17.4361 11.8201L17.438 11.8773ZM47.4234 15.6723C47.4563 15.6694 47.4895 15.6734 47.5207 15.684C47.552 15.6946 47.5807 15.7116 47.6051 15.7339C47.6294 15.7562 47.6489 15.7833 47.6622 15.8135C47.6755 15.8437 47.6824 15.8764 47.6824 15.9094C47.6824 15.9424 47.6755 15.9751 47.6622 16.0053C47.6489 16.0355 47.6294 16.0626 47.6051 16.0849C47.5807 16.1072 47.552 16.1242 47.5207 16.1348C47.4895 16.1454 47.4563 16.1494 47.4234 16.1465H47.3995C47.3593 16.222 47.3404 16.307 47.3446 16.3924C47.3488 16.4778 47.3761 16.5605 47.4234 16.6317C47.2967 16.6317 47.1752 16.5813 47.0856 16.4917C46.996 16.4021 46.9456 16.2806 46.9456 16.1539C46.9456 16.0271 46.996 15.9056 47.0856 15.816C47.1752 15.7264 47.2967 15.676 47.4234 15.676V15.6723ZM41.6599 11.8164C41.7616 11.8276 41.8645 11.8152 41.9605 11.7799C42.0565 11.7447 42.1431 11.6878 42.2134 11.6135V11.6135C42.2558 11.5497 42.3131 11.4971 42.3802 11.4602C42.4473 11.4232 42.5224 11.4031 42.599 11.4013C42.7247 11.4009 42.8482 11.434 42.9569 11.4973C43.0655 11.5605 43.1553 11.6516 43.217 11.7611C43.2812 11.8711 43.3727 11.9626 43.4827 12.0268C43.1801 12.0268 43.0657 12.071 42.9403 12.2113C42.8958 12.2568 42.8428 12.2929 42.7841 12.3176C42.7255 12.3423 42.6626 12.3551 42.599 12.3552C42.5311 12.3552 42.4641 12.3403 42.4025 12.3116C42.341 12.2829 42.2865 12.2411 42.2429 12.1891C42.1784 12.0927 42.0911 12.0136 41.9888 11.9589C41.8865 11.9042 41.7723 11.8756 41.6562 11.8755L41.6599 11.8164Z"
        fill="#3C648D" />
    <path
        d="M28.4743 5.4035C28.834 6.08058 29.1919 6.86836 29.1919 7.65799H28.9705C28.9705 7.32406 28.8617 6.45326 28.4595 5.91454C27.9485 5.22454 27.478 4.80759 26.3452 4.80759C25.5722 4.80759 24.9634 5.52342 24.9634 6.29828C24.9634 7.07315 25.4597 7.89967 25.9984 8.217C25.9984 7.30561 26.3674 6.74106 27.3802 6.74106C28.0186 6.74106 28.4743 7.19676 28.4743 7.66352C28.3993 7.65774 28.324 7.66728 28.2528 7.69157C28.1817 7.71586 28.1163 7.75438 28.0605 7.80479C28.0047 7.8552 27.9598 7.91643 27.9285 7.98477C27.8972 8.0531 27.8801 8.12709 27.8784 8.20224C28.0536 8.0784 28.26 8.00618 28.4743 7.99377C28.4802 8.35975 28.3485 8.71462 28.1053 8.98818C28.0518 8.71328 27.9392 8.49005 27.7197 8.49005C27.4559 8.49005 27.2068 8.78155 27.2068 9.09887C27.2068 9.4162 27.4005 9.69294 27.7326 9.69294C28.2861 9.69294 28.8672 8.98818 28.9207 7.99377H29.1975C29.2123 8.27437 29.1748 8.55527 29.0868 8.82213C29.0257 8.95808 28.9883 9.10346 28.9761 9.252C28.9761 9.43649 29.2547 10.1357 29.4742 10.632C29.6956 10.1357 29.9705 9.44387 29.9705 9.252C29.959 9.10356 29.9222 8.95817 29.8616 8.82213C29.7746 8.55507 29.737 8.27433 29.7509 7.99377H30.0258C30.083 8.98818 30.6623 9.69294 31.2158 9.69294C31.5479 9.69294 31.7416 9.43096 31.7416 9.09887C31.7416 8.76679 31.4907 8.49005 31.2306 8.49005C31.0092 8.49005 30.8966 8.71328 30.8413 8.98818C30.5993 8.71388 30.4678 8.35951 30.4723 7.99377C30.6865 8.00618 30.893 8.0784 31.0682 8.20224C31.0664 8.12709 31.0494 8.0531 31.018 7.98477C30.9867 7.91643 30.9418 7.8552 30.8861 7.80479C30.8303 7.75438 30.7649 7.71586 30.6937 7.69157C30.6226 7.66728 30.5473 7.65774 30.4723 7.66352C30.4723 7.19123 30.928 6.74106 31.5663 6.74106C32.5737 6.74106 32.9482 7.30746 32.9482 8.217C33.4851 7.89967 33.9813 7.07131 33.9813 6.29828C33.9813 5.52526 33.3762 4.80759 32.5995 4.80759C31.4667 4.80759 30.9981 5.23377 30.4852 5.91454C30.0867 6.45326 29.9742 7.32406 29.9742 7.65799H29.7546C29.7546 6.86836 30.1126 6.08058 30.4723 5.4035C30.6402 5.08617 30.8413 4.69874 30.8413 4.35374C30.8413 3.94048 30.6476 3.48294 30.369 2.98481C30.0904 2.48668 29.7343 1.78377 29.4853 1.17494C29.221 1.79289 28.9255 2.39697 28.5997 2.98481C28.3248 3.48294 28.1293 3.94048 28.1293 4.35374C28.1127 4.69874 28.3082 5.08617 28.4743 5.4035Z"
        fill="#3C648D" />
    <path
        d="M4.98473 5.88503C4.98473 5.88503 24.3564 8.24468 28.1182 0.53476C28.1182 0.53476 19.1537 7.24842 2.09189 3.27078C2.09189 3.27078 -7.45188 39.446 27.9724 58.4652C27.9724 58.4652 -1.2345 39.4441 4.98473 5.88503Z"
        fill="#B0B0B1" />
    <path
        d="M53.34 6.623C48.4215 7.24474 45.3866 6.87022 45.3866 6.87022C47.416 8.73728 50.5911 8.9845 50.5911 8.9845C53.2626 24.2641 48.8716 35.9572 43.4273 44.0859H43.5214V44.2852H43.2926H42.6635H30.0535H29.0517H16.4232H15.7572H15.5727V44.0859H15.6336C10.1763 35.9572 5.7817 24.2641 8.45315 8.98819C8.45315 8.98819 11.6338 8.74097 13.6577 6.87391C13.6577 6.87391 10.6209 7.24289 5.70606 6.62669C5.70606 6.62669 0.366861 36.7856 25.8452 55.4654C27.5591 56.7568 29.4871 58.0667 29.5203 58.0926C29.5535 58.0667 31.4814 56.7587 33.1972 55.4654C58.6774 36.7856 53.34 6.623 53.34 6.623Z"
        fill="#3C648D" />
    <path
        d="M36.3613 32.8633C36.3613 32.8633 34.3005 32.8633 32.0811 32.7618L31.9224 32.6659C32.4671 32.9808 32.9194 33.4335 33.2339 33.9785C33.5483 34.5235 33.7139 35.1417 33.7139 35.7709C33.7139 36.4001 33.5483 37.0182 33.2339 37.5633C32.9194 38.1083 32.4671 38.561 31.9224 38.8759C31.3228 39.8887 32.3541 40.9053 32.3541 40.9053C31.8302 42.0757 31.1151 43.1506 30.238 44.0859H42.479C41.6015 43.1505 40.8846 42.0764 40.3574 40.9071C40.3574 40.9071 41.409 39.8887 40.8057 38.8777H31.9224L32.0811 38.7781C34.295 38.6766 36.3613 38.6766 36.3613 38.6766C36.3613 38.6766 38.3261 38.6766 40.6359 38.7781L40.8001 38.8777C40.2549 38.5632 39.8022 38.1106 39.4873 37.5656C39.1725 37.0205 39.0068 36.4022 39.0068 35.7727C39.0068 35.1433 39.1725 34.5249 39.4873 33.9799C39.8022 33.4348 40.2549 32.9823 40.8001 32.6677L40.6359 32.7637C38.3261 32.8633 36.3613 32.8633 36.3613 32.8633Z"
        fill="#3C648D" />
    <path
        d="M56.9082 3.27078C39.8463 7.24842 30.8837 0.53476 30.8837 0.53476C34.64 8.24099 54.0153 5.88503 54.0153 5.88503C60.2346 39.4441 31.0258 58.4652 31.0258 58.4652C66.4519 39.446 56.9082 3.27078 56.9082 3.27078Z"
        fill="#B0B0B1" />
    <path
        d="M18.7294 40.9071C18.2021 42.0764 17.4853 43.1505 16.6077 44.0859H28.8506C27.9744 43.1502 27.2588 42.0761 26.7326 40.9071C26.7326 40.9071 27.7658 39.8887 27.1662 38.8777H18.2829C17.6796 39.8887 18.7294 40.9071 18.7294 40.9071Z"
        fill="#3C648D" />
    <path
        d="M43.2982 27.9779H15.7849C16.5954 28.9312 17.5925 29.7085 18.7146 30.262C18.7146 30.262 17.6796 31.4685 18.2829 32.6604H27.1625C27.7621 31.463 26.7327 30.262 26.7327 30.262C27.7982 29.74 28.7519 29.0156 29.5406 28.1292C30.3304 29.0153 31.2847 29.7396 32.3504 30.262C32.3504 30.262 31.3191 31.463 31.9224 32.6604H40.8002C41.4035 31.463 40.3703 30.262 40.3703 30.262C41.4916 29.708 42.488 28.9307 43.2982 27.9779Z"
        fill="#3C648D" />
    <path
        d="M22.7255 32.8633C22.7255 32.8633 20.7588 32.8633 18.4434 32.7618L18.2829 32.6659C18.8276 32.9808 19.2799 33.4335 19.5944 33.9785C19.9089 34.5235 20.0744 35.1417 20.0744 35.7709C20.0744 36.4001 19.9089 37.0182 19.5944 37.5633C19.2799 38.1083 18.8276 38.561 18.2829 38.8759L18.4434 38.7763C20.7588 38.6748 22.7255 38.6748 22.7255 38.6748C22.7255 38.6748 24.7826 38.6748 27.0001 38.7763L27.1625 38.8759C26.6178 38.561 26.1655 38.1083 25.851 37.5633C25.5365 37.0182 25.371 36.4001 25.371 35.7709C25.371 35.1417 25.5365 34.5235 25.851 33.9785C26.1655 33.4335 26.6178 32.9808 27.1625 32.6659L27.0001 32.7618C24.7826 32.8633 22.7255 32.8633 22.7255 32.8633Z"
        fill="#3C648D" />
</svg>